<svg width="299" height="250" viewBox="0 0 299 250" fill="none" xmlns="http://www.w3.org/2000/svg">
<mask id="mask0_2117_331" style="mask-type:luminance" maskUnits="userSpaceOnUse" x="0" y="0" width="299" height="250">
<path d="M264 0H35C15.67 0 0 15.67 0 35V215C0 234.33 15.67 250 35 250H264C283.33 250 299 234.33 299 215V35C299 15.67 283.33 0 264 0Z" fill="white"/>
</mask>
<g mask="url(#mask0_2117_331)">
<path d="M299 0H0V250H299V0Z" fill="#C6C6C6"/>
<path d="M246.61 154.39C302.94 154.39 348.61 108.72 348.61 52.39C348.61 -3.93999 302.94 -49.61 246.61 -49.61C190.28 -49.61 144.61 -3.93999 144.61 52.39C144.61 108.72 190.28 154.39 246.61 154.39Z" fill="#C00000"/>
<path d="M137.91 104.09C137.91 110.13 133.63 113.25 128.35 111.05C123.07 108.85 118.79 102.17 118.79 96.12C118.79 90.07 123.07 86.96 128.35 89.16C133.63 91.36 137.91 98.04 137.91 104.09ZM141.84 134.8L114.85 123.55L141.84 134.8ZM141.84 123.17L114.85 111.92L141.84 123.17ZM141.84 88.29L114.85 77.04L141.84 88.29ZM141.84 76.66L114.85 65.41L141.84 76.66ZM148.59 149.74L108.11 132.87V50.48L148.59 67.35V149.74ZM184.14 123.55L157.15 134.8L184.14 123.55ZM184.14 111.93L157.15 123.18L184.14 111.93ZM184.14 100.3L157.15 111.55L184.14 100.3ZM184.14 88.67L157.15 99.92L184.14 88.67ZM184.14 77.05L157.15 88.3L184.14 77.05ZM184.14 65.42L157.15 76.67L184.14 65.42ZM190.89 132.87L150.41 149.74V67.35L190.89 50.48V132.87Z" fill="white"/>
<path d="M138.05 104.09C138.05 110.13 133.77 113.25 128.49 111.05C123.21 108.85 118.93 102.17 118.93 96.12C118.93 90.07 123.21 86.96 128.49 89.16C133.77 91.36 138.05 98.04 138.05 104.09Z" fill="#9FC1FF"/>
<path d="M141.84 134.8L114.85 123.55M141.84 123.17L114.85 111.92M141.84 88.29L114.85 77.04M141.84 76.66L114.85 65.41M184.14 123.55L157.15 134.8M184.14 111.93L157.15 123.18M184.14 100.3L157.15 111.55M184.14 88.67L157.15 99.92M184.14 77.05L157.15 88.3M184.14 65.42L157.15 76.67M137.91 104.09C137.91 110.13 133.63 113.25 128.35 111.05C123.07 108.85 118.79 102.17 118.79 96.12C118.79 90.07 123.07 86.96 128.35 89.16C133.63 91.36 137.91 98.04 137.91 104.09ZM148.59 149.74L108.11 132.87V50.48L148.59 67.35V149.74ZM190.89 132.87L150.41 149.74V67.35L190.89 50.48V132.87Z" stroke="#424242" stroke-width="2.33" stroke-miterlimit="10"/>
<path d="M273.57 39.2001C263.24 41.1 261.7 42.6401 259.8 52.9701C257.9 42.6401 256.36 41.1 246.03 39.2001C256.36 37.3001 257.9 35.7601 259.8 25.4301C261.7 35.7601 263.24 37.3001 273.57 39.2001Z" fill="#9FC1FF"/>
</g>
</svg>
