<svg width="56" height="79" viewBox="0 0 56 79" fill="none" xmlns="http://www.w3.org/2000/svg">
<g clip-path="url(#clip0_1958_2)">
<path d="M54.582 11.849V77.5697H2V2H43.1455L54.582 11.849ZM54.582 11.849H43.1455V2.65491" stroke="white" stroke-width="3" stroke-linejoin="round"/>
<path d="M43.1425 61.146H26.7025C25.7798 61.146 25 60.3534 25 59.4439C25 58.5344 25.7928 57.7288 26.7025 57.7288H43.1425C44.0652 57.7288 44.845 58.5214 44.845 59.4439C44.715 60.3664 43.9223 61.146 43.1425 61.146Z" fill="white"/>
<path d="M43.2945 70.9951H13.7155C12.7928 70.9951 12 70.2025 12 69.293C12 68.3834 12.7928 67.5908 13.7155 67.5908H43.2945C44.2172 67.5908 44.997 68.3834 44.997 69.293C44.867 70.2155 44.0743 70.9951 43.2945 70.9951Z" fill="white"/>
<path d="M15.139 64.4333H13.4235C12.5008 64.4333 11.708 63.6407 11.708 62.7312C11.708 61.8217 12.5008 61.0291 13.4235 61.0291H15.139C16.0617 61.0291 16.8415 61.8217 16.8415 62.7312C16.8415 63.6407 16.0487 64.4333 15.139 64.4333Z" fill="#C00000"/>
<line x1="12" y1="34.6549" x2="44" y2="34.6549" stroke="white" stroke-width="3"/>
<line x1="12" y1="42.6549" x2="44" y2="42.6549" stroke="white" stroke-width="3"/>
<path d="M35.7315 14.5592H12.7155C11.7928 14.5592 11 13.7666 11 12.857C11 11.9475 11.7928 11.1549 12.7155 11.1549H35.7185C36.6412 11.1549 37.421 11.9475 37.421 12.857C37.421 13.7666 36.6282 14.5592 35.7185 14.5592H35.7315Z" fill="white"/>
<path d="M29.1425 22.1338H12.7155C11.7928 22.1338 11 21.3412 11 20.4187C11 19.4962 11.7928 18.7166 12.7155 18.7166H29.1425C30.0652 18.7166 30.858 19.5092 30.858 20.4187C30.858 21.3282 30.0652 22.1338 29.1425 22.1338Z" fill="white"/>
<rect x="11" y="27.1549" width="34" height="23" stroke="white" stroke-width="3" stroke-linejoin="round"/>
<line x1="19.5" y1="28.1549" x2="19.5" y2="50.1549" stroke="white" stroke-width="3"/>
</g>
<defs>
<clipPath id="clip0_1958_2">
<rect width="56" height="79" fill="white"/>
</clipPath>
</defs>
</svg>
