<svg width="72" height="72" viewBox="0 0 72 72" fill="none" xmlns="http://www.w3.org/2000/svg">
<path d="M62.8934 31.9855V40.1329H57.2684C56.6645 43.0105 55.4684 45.7579 53.9171 48.1618L57.9908 52.2355L52.1171 57.9908L47.925 53.7987C45.5329 55.35 42.8921 56.3092 40.0145 56.7947V63.0237H31.8671V56.6763C29.1079 56.0724 26.7158 54.8763 24.4421 53.4434L19.7645 57.9908L14.0092 52.2355L18.8053 47.4395C17.3724 45.2842 16.4132 42.7618 15.9276 40.1329H8.97632V31.9855H15.8092C16.2829 29.3447 17.3605 26.8342 18.6868 24.6789L13.8908 19.8829L19.6461 14.1276L24.3237 18.7934C26.479 17.2421 28.9895 16.1526 31.7487 15.5605V9.09473H39.8961V15.2053C42.7737 15.6789 45.4026 16.7566 47.8066 18.2013L51.9987 14.0092L57.754 19.7645L53.6803 23.8381C55.3618 26.2303 56.5579 28.871 57.0316 31.8671H62.9053V31.9855H62.8934ZM50.554 36.0592C50.554 28.2671 44.2066 22.0381 36.5329 22.0381C28.8592 22.0381 22.5237 28.3855 22.5237 36.0592C22.5237 43.7329 28.7526 50.0803 36.5329 50.0803C44.3132 50.0803 50.554 43.8513 50.554 36.0592Z" fill="#C00000"/>
<path d="M40.0145 64.5632H31.8672C31.0264 64.5632 30.3158 63.8408 30.3158 63V57.7303C28.279 57.1264 26.3606 56.2974 24.5606 55.2198L20.7237 59.0566C20.4869 59.2935 20.0014 59.5303 19.6461 59.5303C19.2908 59.5303 18.9237 59.4119 18.5685 59.0566L12.8132 53.3013C12.5764 53.0645 12.3395 52.579 12.3395 52.2237C12.3395 51.8685 12.4579 51.5014 12.8132 51.1461L16.7685 47.1908C15.8093 45.3908 14.9685 43.5908 14.4948 41.6842H8.98821C8.14742 41.6842 7.43689 40.9619 7.43689 40.1211V31.9737C7.43689 31.1329 8.15926 30.4106 8.98821 30.4106H14.6132C15.0869 28.4921 15.8093 26.5737 16.8869 24.904L12.9316 20.9487C12.6948 20.7119 12.4461 20.2264 12.4461 19.8711C12.4461 19.5158 12.5645 19.1487 12.9316 18.7935L18.6869 13.0382C19.2908 12.4342 20.25 12.4342 20.8422 13.0382L24.679 16.875C26.479 15.7974 28.3974 14.9566 30.4343 14.3645V9.09477C30.4343 8.25398 31.1566 7.54346 31.9974 7.54346H40.1448C40.9856 7.54346 41.7079 8.26583 41.7079 9.09477V14.0092C43.8632 14.4829 45.9001 15.3237 47.8185 16.4014L51.1698 13.05C51.7737 12.4461 52.7211 12.4461 53.325 13.05L59.0803 18.8053C59.3172 19.0421 59.554 19.5277 59.554 19.8829C59.554 20.2382 59.4356 20.6053 59.0803 20.9606L55.729 24.1935C56.9251 26.1119 57.8843 28.2671 58.3698 30.4224H62.9172C63.7579 30.4224 64.4803 31.1448 64.4803 31.9856V40.1329C64.4803 40.9737 63.7579 41.6961 62.9172 41.6961H58.4882C57.8843 43.8514 56.9251 46.0066 55.729 47.925L58.9619 51.1579C59.1987 51.3948 59.4356 51.8803 59.4356 52.2356C59.4356 52.5908 59.3172 52.9579 58.9619 53.3132L53.2066 59.0685C52.9698 59.3053 52.4843 59.5421 52.129 59.5421C51.7737 59.5421 51.4066 59.4237 51.0514 59.0685L47.7 55.7171C45.7816 56.7948 43.7448 57.6356 41.5895 58.1092V63.0237C41.5895 63.8645 40.8672 64.5869 40.0264 64.5869L40.0145 64.5632ZM33.3 61.579H38.4514V56.9132C38.4514 56.1908 38.925 55.5987 39.6474 55.4803C42.2764 55.0066 44.6803 54.0474 46.954 52.6027C47.5579 52.2474 48.2685 52.3658 48.8724 52.8395L51.9869 55.954L55.7053 52.2356L52.7093 49.2395C52.2356 48.7658 52.1172 47.925 52.5908 47.3211C54.154 45.0474 55.2316 42.525 55.7053 39.8961C55.8237 39.1737 56.4277 38.7 57.1382 38.7H61.3303V33.5487H57.1382C56.4158 33.5487 55.8237 33.075 55.7053 32.3527C55.2316 29.7119 54.154 27.2014 52.5908 24.9277C52.2356 24.3237 52.2356 23.4948 52.7093 23.0092L55.7053 20.0132L52.1172 16.1764L49.0027 19.2908C48.529 19.8948 47.6882 19.8948 47.0843 19.5277C44.8106 18.0948 42.4066 17.1356 39.7777 16.65C39.0553 16.5316 38.5816 15.9277 38.5816 15.2171V10.5514H33.4303V15.4658C33.4303 16.1882 32.9566 16.7803 32.2343 16.8987C29.7237 17.5027 27.4382 18.45 25.4014 19.8948C24.7974 20.25 23.9685 20.25 23.4829 19.7764L19.8948 16.1882L16.0579 19.9066L19.7764 23.625C20.2619 24.0987 20.3803 24.9395 20.0132 25.5435C18.6987 27.5803 17.7395 29.854 17.254 32.2461C17.1356 32.9685 16.5316 33.4421 15.8211 33.4421H10.4329V38.5935H15.8211C16.5435 38.5935 17.1356 39.0671 17.254 39.7895C17.7277 42.1816 18.6869 44.4671 20.0132 46.504C20.3685 47.1079 20.25 47.8185 19.7764 48.4224L16.0579 52.2593L19.7764 55.9777L23.3764 52.3895C23.85 51.9158 24.6908 51.7856 25.2948 52.2711C27.3316 53.704 29.7237 54.7816 32.1277 55.2671C32.85 55.3856 33.3237 55.9895 33.3237 56.7V61.6145L33.3 61.579Z" fill="white"/>
<path d="M36.5329 51.6316C27.9119 51.6316 20.9606 44.6802 20.9606 36.0592C20.9606 27.4381 27.9119 20.4868 36.5329 20.4868C45.154 20.4868 52.1053 27.4381 52.1053 36.0592C52.1053 44.6802 45.154 51.6316 36.5329 51.6316ZM36.5329 23.4829C29.5816 23.4829 23.9566 29.1079 23.9566 36.0592C23.9566 43.0105 29.5816 48.6355 36.5329 48.6355C43.4843 48.6355 49.1093 43.0105 49.1093 36.0592C49.1093 29.1079 43.4843 23.4829 36.5329 23.4829Z" fill="white"/>
<path d="M28.2671 37.6105C27.4263 37.6105 26.704 36.8881 26.704 36.0473C26.704 34.1289 27.9 31.3815 29.8185 29.2144C32.0921 26.5736 34.8513 25.1407 37.6106 25.1407C38.4513 25.1407 39.1619 25.8631 39.1619 26.7039C39.1619 27.5447 38.4395 28.2552 37.6106 28.2552C33.1816 28.2552 29.7 33.8802 29.7 36.1657C29.8185 36.8881 29.0961 37.5986 28.2671 37.5986V37.6105Z" fill="white"/>
</svg>
