<svg width="72" height="66" viewBox="0 0 72 66" fill="none" xmlns="http://www.w3.org/2000/svg">
<path d="M40.4882 0V12.004H32.9448L28.5158 16.4402L29.3448 12.004H25.5198V0H40.4882Z" fill="#C00000"/>
<path d="M70.4369 66.006H67.4408C66.6001 66.006 65.8895 65.2824 65.8895 64.4521C65.8895 63.6218 66.6119 62.8864 67.4408 62.8864H70.4369C71.2777 62.8864 72.0001 63.6099 72.0001 64.4521C71.8816 65.2943 71.1593 66.006 70.4369 66.006Z" fill="white"/>
<path d="M58.4645 66.006H49.4764C48.6356 66.006 47.925 65.2824 47.925 64.4521C47.925 63.6218 48.6474 62.8864 49.4764 62.8864H58.4645C59.3053 62.8864 60.0158 63.6099 60.0158 64.4521C59.8974 65.2943 59.175 66.006 58.4645 66.006Z" fill="white"/>
<path d="M40.4882 66.006H31.5C30.6593 66.006 29.9487 65.2824 29.9487 64.4521C29.9487 63.6218 30.6711 62.8864 31.5 62.8864H40.4882C41.329 62.8864 42.0395 63.6099 42.0395 64.4521C41.9211 65.2943 41.1987 66.006 40.4882 66.006Z" fill="white"/>
<path d="M22.5237 66.006H13.5356C12.6948 66.006 11.9843 65.2824 11.9843 64.4521C11.9843 63.6218 12.7066 62.8864 13.5356 62.8864H22.5237C23.3645 62.8864 24.075 63.6099 24.075 64.4521C23.9566 65.2943 23.2343 66.006 22.5237 66.006Z" fill="white"/>
<path d="M4.54737 66.006H1.55132C0.710526 66.006 0 65.2824 0 64.4521C0 63.6218 0.722368 62.8864 1.55132 62.8864H4.54737C5.38816 62.8864 6.09868 63.6099 6.09868 64.4521C5.98026 65.2943 5.25789 66.006 4.54737 66.006Z" fill="white"/>
<path d="M67.4526 24.004H58.4645V64.5589H67.4526V24.004Z" fill="#C00000"/>
<path d="M31.5118 43.5638H22.5237V64.5589H31.5118V43.5638Z" fill="#C00000"/>
<path d="M49.4763 12H40.4882V64.5588H49.4763V12Z" fill="#C00000"/>
<path d="M13.5355 34.5608H4.54736V64.5588H13.5355V34.5608Z" fill="#C00000"/>
<path d="M13.5356 66.006H4.54741C3.70662 66.006 2.99609 65.2825 2.99609 64.4522V34.4541C2.99609 33.612 3.71846 32.9003 4.54741 32.9003H13.5356C14.3764 32.9003 15.0869 33.6238 15.0869 34.4541V64.4522C14.9685 65.2943 14.2461 66.006 13.5356 66.006ZM5.99215 63.005H11.9843V36.008H5.99215V63.005Z" fill="white"/>
<path d="M31.5 66.006H22.5119C21.6711 66.006 20.9606 65.2825 20.9606 64.4522V43.5757C20.9606 42.7335 21.6829 42.0219 22.5119 42.0219H31.5C32.3408 42.0219 33.0632 42.7454 33.0632 43.5757V64.5708C32.9448 65.2943 32.2224 66.006 31.5 66.006ZM23.9566 63.005H29.9487V45.011H23.9566V63.005Z" fill="white"/>
<path d="M49.4764 66.006H40.4882C39.6474 66.006 38.9369 65.2824 38.9369 64.4521V12C38.9369 11.1579 39.6593 10.4462 40.4882 10.4462H49.4764C50.3171 10.4462 51.0277 11.1697 51.0277 12V64.5589C50.9093 65.2824 50.1869 65.9941 49.4764 65.9941V66.006ZM41.9329 63.005H47.925V13.5658H41.9329V63.005Z" fill="white"/>
<path d="M67.4408 66.0059H58.4527C57.6119 66.0059 56.9014 65.2824 56.9014 64.4521V24.0039C56.9014 23.1618 57.6237 22.4501 58.4527 22.4501H67.4408C68.2816 22.4501 68.9922 23.1736 68.9922 24.0039V64.5588C68.8737 65.2824 68.1514 65.9941 67.4408 65.9941V66.0059ZM59.8974 63.0049H65.8895V25.5697H59.8974V63.0049Z" fill="white"/>
</svg>
