<svg width="299" height="250" viewBox="0 0 299 250" fill="none" xmlns="http://www.w3.org/2000/svg">
<mask id="mask0_2191_22" style="mask-type:luminance" maskUnits="userSpaceOnUse" x="0" y="0" width="299" height="250">
<path d="M264 0H35C15.67 0 0 15.67 0 35V215C0 234.33 15.67 250 35 250H264C283.33 250 299 234.33 299 215V35C299 15.67 283.33 0 264 0Z" fill="white"/>
</mask>
<g mask="url(#mask0_2191_22)">
<path d="M299 0H0V250H299V0Z" fill="#9FC1FF"/>
<path d="M149.654 163.24C205.984 163.24 251.654 117.57 251.654 61.24C251.654 4.90998 205.984 -40.76 149.654 -40.76C93.3239 -40.76 47.6539 4.90998 47.6539 61.24C47.6539 117.57 93.3239 163.24 149.654 163.24Z" fill="#C6C6C6"/>
</g>
<path d="M270.576 158.22C262.916 159.63 261.776 160.77 260.356 168.44C258.946 160.78 257.806 159.64 250.136 158.22C257.796 156.81 258.946 155.67 260.356 148C261.766 155.66 262.906 156.8 270.576 158.22Z" fill="#C00000"/>
<path d="M48.44 115.22C40.78 116.63 39.63 117.77 38.22 125.44C36.81 117.78 35.67 116.63 28 115.22C35.66 113.81 36.81 112.67 38.22 105C39.63 112.66 40.77 113.81 48.44 115.22Z" fill="#C00000"/>
<path d="M163.54 22.77C153.21 24.67 151.67 26.21 149.77 36.54C147.87 26.21 146.33 24.67 136 22.77C146.33 20.87 147.87 19.33 149.77 9C151.67 19.33 153.21 20.87 163.54 22.77Z" fill="#C00000"/>
<path d="M198 108.5L198.5 107.9C199.1 107.1 200.3 106.9 201.1 107.5L207.1 111.9C207.9 112.5 208.1 113.7 207.5 114.5L193.6 133.5C193 134.3 191.8 134.5 191 133.9L185 129.5C184.2 128.9 184 127.7 184.6 126.9L198 108.5Z" fill="#9FC1FF"/>
<path d="M116.3 98.6C119.9 98.6 122.8 95.7 122.8 92.1C122.8 88.5 119.9 85.6 116.3 85.6C112.7 85.6 109.8 88.5 109.8 92.1C109.8 95.7 112.7 98.6 116.3 98.6Z" fill="#9FC1FF"/>
<path d="M184 125.7H183.8C181.9 124.2 179.8 123.2 177.6 122.7L165.2 119.4C161.6 118.5 158.1 117.2 154.6 115.7L132.8 106.1C129.9 104.8 128.7 101.4 130.1 98.6C131.3 96.2 134.1 95 136.6 95.8L137.8 96.1L156.5 101.7C158.4 102.3 160.3 101.4 161.1 99.6C162.1 97.4 160.9 94.9 158.6 94.3L151 92.2C147.1 91.1 142.9 92 139.7 94.5L138 95.8M130.2 99.2C129.9 99.1 129.5 98.9 129.2 98.6C127.2 97 127.1 94.1 128.9 92.3L138.9 82.6C142.2 79.6 146.8 78.4 151.2 79.4L167.5 83.2C170.2 83.8 172.6 85.2 174.6 87L198 109.1M190.6 134.1L184.6 129.7C183.8 129.1 183.6 127.9 184.2 127.1L198.1 108.1C198.7 107.3 199.9 107.1 200.7 107.7L206.7 112.1C207.5 112.7 207.7 113.9 207.1 114.7L193.2 133.7C192.6 134.5 191.4 134.7 190.6 134.1Z" stroke="#424242" stroke-width="2.3" stroke-miterlimit="10"/>
<path d="M113.1 47H119.5M103.7 116.8H128.9M103.7 79.3H128.9M109.2 71.9H123.3M97.2 59.8H135.3M92.1 51.8H140.5M140.7 73.6V48.7C140.7 45.5 138.1 43 135 43H97.7C94.5 43 92 45.6 92 48.7V122C92 125.2 94.6 127.7 97.7 127.7H135C138.2 127.7 140.7 125.1 140.7 122V115.6M122.7 107.6L129.2 102M136.8 95.3L162.3 73.1M122.5 92.1C122.5 95.5 119.7 98.3 116.3 98.3C112.9 98.3 110.1 95.5 110.1 92.1C110.1 88.7 112.9 85.9 116.3 85.9C119.7 85.9 122.5 88.7 122.5 92.1Z" stroke="#424242" stroke-width="2.3" stroke-linecap="round" stroke-linejoin="round"/>
</svg>
