<svg width="299" height="250" viewBox="0 0 299 250" fill="none" xmlns="http://www.w3.org/2000/svg">
<mask id="mask0_2120_359" style="mask-type:luminance" maskUnits="userSpaceOnUse" x="0" y="0" width="299" height="250">
<path d="M264 0H35C15.67 0 0 15.67 0 35V215C0 234.33 15.67 250 35 250H264C283.33 250 299 234.33 299 215V35C299 15.67 283.33 0 264 0Z" fill="white"/>
</mask>
<g mask="url(#mask0_2120_359)">
<path d="M299 0H0V250H299V0Z" fill="#C6C6C6"/>
<path d="M149.5 163.24C205.83 163.24 251.5 117.57 251.5 61.24C251.5 4.90999 205.83 -40.76 149.5 -40.76C93.17 -40.76 47.5 4.90999 47.5 61.24C47.5 117.57 93.17 163.24 149.5 163.24Z" fill="#9FC1FF"/>
</g>
<mask id="mask1_2120_359" style="mask-type:luminance" maskUnits="userSpaceOnUse" x="95" y="39" width="90" height="31">
<path d="M184.28 39.88H95.5601V69.17H184.28V39.88Z" fill="white"/>
</mask>
<g mask="url(#mask1_2120_359)">
<path d="M164.9 47.63H114.95C105.434 47.63 97.7201 55.3441 97.7201 64.86V86.39C97.7201 95.9059 105.434 103.62 114.95 103.62H164.9C174.416 103.62 182.13 95.9059 182.13 86.39V64.86C182.13 55.3441 174.416 47.63 164.9 47.63Z" fill="white"/>
</g>
<mask id="mask2_2120_359" style="mask-type:luminance" maskUnits="userSpaceOnUse" x="0" y="0" width="299" height="250">
<path d="M264 0H35C15.67 0 0 15.67 0 35V215C0 234.33 15.67 250 35 250H264C283.33 250 299 234.33 299 215V35C299 15.67 283.33 0 264 0Z" fill="white"/>
</mask>
<g mask="url(#mask2_2120_359)">
<path d="M189.49 116.95V91.75H174.69V116.95H164.65L182.09 134.39L199.53 116.95H189.49Z" fill="#C00000"/>
<path d="M189.84 116.95V91.75H175.04V116.95H165L182.44 134.39L199.88 116.95H189.84Z" stroke="#424242" stroke-width="2.33" stroke-miterlimit="10"/>
<path d="M182.25 81.09V63.9C182.25 55 175.03 47.78 166.13 47.78H114.12C105.22 47.78 98 55 98 63.9V93.2C98 102.1 105.22 109.32 114.12 109.32H152.44" stroke="#424242" stroke-width="2.33" stroke-miterlimit="10"/>
<path d="M115.77 95.4H130.46" stroke="#424242" stroke-width="2.33" stroke-miterlimit="10"/>
<path d="M139.27 95.4H164.12" stroke="#424242" stroke-width="2.33" stroke-miterlimit="10"/>
<path d="M150.44 135.46C142.78 136.87 141.63 138.01 140.22 145.68C138.81 138.02 137.67 136.88 130 135.46C137.66 134.05 138.81 132.91 140.22 125.24C141.63 132.9 142.77 134.04 150.44 135.46Z" fill="white"/>
<path d="M204.44 37.46C196.78 38.87 195.64 40.01 194.22 47.68C192.81 40.02 191.67 38.87 184 37.46C191.66 36.05 192.81 34.91 194.22 27.24C195.63 34.9 196.77 36.05 204.44 37.46Z" fill="#C00000"/>
</g>
</svg>
