<svg width="299" height="250" viewBox="0 0 299 250" fill="none" xmlns="http://www.w3.org/2000/svg">
<mask id="mask0_2094_20" style="mask-type:luminance" maskUnits="userSpaceOnUse" x="0" y="0" width="299" height="250">
<path d="M264 0H35C15.67 0 0 15.67 0 35V215C0 234.33 15.67 250 35 250H264C283.33 250 299 234.33 299 215V35C299 15.67 283.33 0 264 0Z" fill="white"/>
</mask>
<g mask="url(#mask0_2094_20)">
<path d="M299 0H0V250H299V0Z" fill="#C6C6C6"/>
<path d="M246.61 154.39C302.94 154.39 348.61 108.72 348.61 52.39C348.61 -3.93999 302.94 -49.61 246.61 -49.61C190.28 -49.61 144.61 -3.93999 144.61 52.39C144.61 108.72 190.28 154.39 246.61 154.39Z" fill="#9FC1FF"/>
<path d="M230.12 80.45V129.68H196.52V75.15H217.36L211.38 86.94C209.54 90.43 210.34 94.57 213.18 96.2C216.02 97.83 220 96.43 222.08 93.08L230.13 80.46L230.12 80.45Z" fill="#C00000"/>
<path d="M219.6 62.33L221.33 68.14L211.39 86.94C209.54 90.43 210.35 94.57 213.18 96.2C216.02 97.83 220 96.43 222.08 93.08L231.79 77.43L240.03 74.4C245.44 72.41 250.47 69.51 254.91 65.83L257.49 63.69M230.12 79.74V129.68H196.52V75.15H217.36M238.29 40.63L212.45 53.12C209.2 54.67 206.9 57.71 206.3 61.27L203.96 75.15M239.32 74.71L240.25 85.29C240.52 88.38 238.31 91.13 235.34 91.39C233.16 91.58 231.15 90.38 230.13 88.51M249.77 69.6L250.63 79.41C250.9 82.5 248.69 85.25 245.72 85.51C242.75 85.77 240.1 83.45 239.82 80.36M266.86 57.49C265.84 58.35 264.31 58.22 263.45 57.19C262.59 56.17 262.72 54.64 263.75 53.78C264.77 52.92 266.3 53.06 267.16 54.08C268.02 55.1 267.89 56.63 266.86 57.49ZM277.95 53.5L261.01 67.72L234.35 35.95L251.29 21.73L277.95 53.5Z" stroke="#424242" stroke-width="2.33" stroke-miterlimit="10"/>
<path d="M126.3 128.03H104.66V149.68" stroke="#424242" stroke-width="2" stroke-miterlimit="10"/>
<path d="M66.77 114.58V68.49H126.3V128.03L104.66 149.68H66.77V142.08" fill="white"/>
<path d="M66.77 114.58V68.49H126.3V128.03L104.66 149.68H66.77V142.08" stroke="#424242" stroke-width="2" stroke-miterlimit="10"/>
<path d="M58.36 144C67.2 144 74.36 136.84 74.36 128C74.36 119.16 67.2 112 58.36 112C49.52 112 42.36 119.16 42.36 128C42.36 136.84 49.52 144 58.36 144Z" fill="#9FC1FF"/>
<path d="M67.16 120.55L54.44 135.51L49.12 125.14M126.3 128.03H104.65V149.68M77.95 98.33H83.36M77.95 87.5H83.36M115.12 98.33H88.06M115.12 87.5H88.06M74.37 128.03C74.37 137 67.1 144.27 58.13 144.27C49.16 144.27 41.89 137 41.89 128.03C41.89 119.06 49.16 111.79 58.13 111.79C67.1 111.79 74.37 119.06 74.37 128.03Z" stroke="#424242" stroke-width="2" stroke-miterlimit="10"/>
<path d="M61.63 47.86C51.3 49.76 49.76 51.3 47.86 61.63C45.96 51.3 44.42 49.76 34.09 47.86C44.42 45.96 45.96 44.42 47.86 34.09C49.76 44.42 51.3 45.96 61.63 47.86Z" fill="white"/>
<path d="M195.36 46.22C187.7 47.63 186.56 48.77 185.14 56.44C183.73 48.78 182.59 47.63 174.92 46.22C182.58 44.81 183.73 43.67 185.14 36C186.55 43.66 187.69 44.81 195.36 46.22Z" fill="#C00000"/>
</g>
</svg>
