<svg width="72" height="72" viewBox="0 0 72 72" fill="none" xmlns="http://www.w3.org/2000/svg">
<g clip-path="url(#clip0_1965_76)">
<path d="M9.09161 1.68152V49.5947H36H62.9084V1.68152H9.09161Z" fill="#C00000"/>
<path d="M36 25.6382H50.9557C50.9557 31.7487 47.3616 37.0184 42.1005 39.2921L41.9823 39.0553L36 25.6382Z" fill="#C00000"/>
<path d="M50.9438 25.6381H35.9882V10.6578C44.2404 10.6578 50.9438 17.242 50.9438 25.6381Z" fill="#C00000"/>
<path d="M70.4394 3.11447H62.9084C62.069 3.11447 61.3596 2.39211 61.3596 1.56316C61.3596 0.734211 62.0808 0 62.9084 0H70.4394C71.2788 0 72 0.722369 72 1.56316C72 2.40395 71.1606 3.11447 70.4394 3.11447Z" fill="white"/>
<path d="M9.09163 3.11447H1.54877C0.70936 3.11447 0 2.39211 0 1.56316C0 0.734211 0.721182 0 1.54877 0H9.0798C9.91921 0 10.6404 0.722369 10.6404 1.56316C10.6404 2.40395 9.91921 3.11447 9.0798 3.11447H9.09163Z" fill="white"/>
<path d="M70.4394 51.0277H62.9084C62.069 51.0277 61.3596 50.3053 61.3596 49.4645C61.3596 48.6237 62.0808 47.9132 62.9084 47.9132H70.4394C71.2788 47.9132 72 48.6356 72 49.4645C72 50.2935 71.1606 51.0277 70.4394 51.0277Z" fill="white"/>
<path d="M9.09163 51.0277H1.54877C0.70936 51.0277 0 50.3053 0 49.4645C0 48.6237 0.721182 47.9132 1.54877 47.9132H9.0798C9.91921 47.9132 10.6404 48.6356 10.6404 49.4645C10.6404 50.2935 9.91921 51.0277 9.0798 51.0277H9.09163Z" fill="white"/>
<path d="M62.9084 51.0276H9.09162C8.25221 51.0276 7.54285 50.3053 7.54285 49.4645V1.56316C7.54285 0.722369 8.26403 0 9.09162 0H62.9084C63.7478 0 64.469 0.722369 64.469 1.56316V49.4763C64.469 50.3171 63.7478 51.0395 62.9084 51.0395V51.0276ZM10.6404 48.0316H61.466V3.11447H10.6404V48.0316Z" fill="white"/>
<path d="M22.4867 72C22.2502 72 21.8837 71.8816 21.6473 71.7631C20.9261 71.2776 20.8079 70.4487 21.1744 69.7263L34.6877 48.7658C35.1606 48.0434 36 47.925 36.7212 48.2802C37.4424 48.7658 37.5606 49.5947 37.1941 50.3171L23.799 71.2776C23.5626 71.7631 23.0778 72 22.4867 72Z" fill="white"/>
<path d="M49.5133 72C49.0286 72 48.5557 71.7631 48.201 71.2776L34.6877 50.3171C34.2148 49.5947 34.4512 48.6355 35.1606 48.2802C35.8818 47.8065 36.8394 48.0434 37.1941 48.7657L50.7074 69.7263C51.1921 70.4486 50.9438 71.4078 50.2345 71.7631C49.998 71.8815 49.7616 72 49.5133 72Z" fill="white"/>
<path d="M36 42.0513C26.9084 42.0513 19.4955 34.6263 19.4955 25.5197C19.4955 16.4131 26.9084 9.10657 36 9.10657C45.0916 9.10657 52.5044 16.5316 52.5044 25.6381C52.5044 32.1039 48.6739 38.096 42.7034 40.7368C40.5517 41.5776 38.2817 42.0513 36.0118 42.0513H36ZM36 12.1026C28.5872 12.1026 22.4867 18.0947 22.4867 25.6381C22.4867 33.1816 28.5872 39.0553 36 39.0553C37.9153 39.0553 39.7123 38.7 41.4975 37.8592C46.4039 35.7039 49.5133 30.9079 49.5133 25.5197C49.5133 18.0947 43.4128 12.1026 36 12.1026Z" fill="white"/>
<path d="M41.9823 40.6066C41.3793 40.6066 40.9064 40.2513 40.67 39.7658L34.6877 26.2303C34.5695 25.9934 34.5695 25.875 34.5695 25.6263V10.646C34.5695 9.80525 35.2906 9.09473 36.13 9.09473C36.9695 9.09473 37.6906 9.81709 37.6906 10.646V25.2592L43.5547 38.4395C43.9094 39.1618 43.5547 40.121 42.8335 40.3579C42.3488 40.4763 42.2305 40.5947 41.9941 40.5947L41.9823 40.6066Z" fill="white"/>
<path d="M50.9438 27.071H35.9882C35.1488 27.071 34.4394 26.3487 34.4394 25.5079C34.4394 24.6671 35.1606 23.9447 35.9882 23.9447H50.9438C51.7832 23.9447 52.4926 24.6671 52.4926 25.5079C52.4926 26.3487 51.7714 27.071 50.9438 27.071Z" fill="white"/>
</g>
<defs>
<clipPath id="clip0_1965_76">
<rect width="72" height="72" fill="white"/>
</clipPath>
</defs>
</svg>
