<svg width="407" height="250" viewBox="0 0 407 250" fill="none" xmlns="http://www.w3.org/2000/svg">
<path d="M20.44 115.22C12.78 116.63 11.63 117.77 10.22 125.44C8.81 117.78 7.67 116.63 0 115.22C7.66 113.81 8.81 112.67 10.22 105C11.63 112.66 12.77 113.81 20.44 115.22Z" fill="white"/>
<mask id="mask0_2115_300" style="mask-type:luminance" maskUnits="userSpaceOnUse" x="107" y="0" width="300" height="250">
<path d="M371.76 0H142.76C123.43 0 107.76 15.67 107.76 35V215C107.76 234.33 123.43 250 142.76 250H371.76C391.09 250 406.76 234.33 406.76 215V35C406.76 15.67 391.09 0 371.76 0Z" fill="white"/>
</mask>
<g mask="url(#mask0_2115_300)">
<path d="M406.76 0H107.76V250H406.76V0Z" fill="#9FC1FF"/>
<path d="M257.26 163.24C313.59 163.24 359.26 117.57 359.26 61.24C359.26 4.90999 313.59 -40.76 257.26 -40.76C200.93 -40.76 155.26 4.90999 155.26 61.24C155.26 117.57 200.93 163.24 257.26 163.24Z" fill="#C6C6C6"/>
</g>
<mask id="mask1_2115_300" style="mask-type:luminance" maskUnits="userSpaceOnUse" x="107" y="0" width="300" height="250">
<path d="M406.76 0H107.76V250H406.76V0Z" fill="white"/>
</mask>
<g mask="url(#mask1_2115_300)">
<path d="M305.53 107.85L305.99 107.23C306.61 106.39 307.79 106.2 308.63 106.82L314.66 111.22C315.5 111.83 315.69 113.02 315.07 113.86L301.22 132.84C300.6 133.68 299.42 133.87 298.58 133.25L292.55 128.85C291.71 128.23 291.52 127.05 292.14 126.21L305.54 107.86L305.53 107.85Z" fill="#9FC1FF"/>
<path d="M223.85 98.03C227.42 98.03 230.31 95.14 230.31 91.57C230.31 88 227.42 85.11 223.85 85.11C220.28 85.11 217.39 88 217.39 91.57C217.39 95.14 220.28 98.03 223.85 98.03Z" fill="#9FC1FF"/>
<path d="M291.57 125.05L291.36 124.9C289.48 123.57 287.37 122.59 285.14 122L272.72 118.74C269.11 117.79 265.58 116.56 262.16 115.05L240.41 105.45C237.52 104.18 236.29 100.74 237.7 97.9199C238.9 95.5199 241.66 94.3199 244.24 95.0999L245.39 95.4499L264.05 101.06C265.91 101.62 267.89 100.71 268.68 98.9499C269.65 96.7899 268.47 94.2799 266.19 93.6399L258.62 91.5399C254.69 90.4499 250.47 91.2999 247.27 93.8399L245.58 95.1699M237.8 98.5599C237.46 98.4099 237.13 98.2199 236.82 97.9799C234.86 96.4099 234.71 93.4699 236.52 91.7199L246.51 82.0099C249.85 78.9999 254.43 77.7999 258.81 78.7799L275.06 82.5599C277.74 83.1799 280.21 84.5099 282.21 86.3999L305.59 108.51M298.18 133.46L292.15 129.06C291.31 128.45 291.12 127.26 291.74 126.42L305.59 107.44C306.2 106.6 307.39 106.41 308.23 107.03L314.26 111.43C315.1 112.04 315.29 113.23 314.67 114.07L300.82 133.05C300.2 133.89 299.02 134.08 298.18 133.46Z" stroke="#424242" stroke-width="2.33" stroke-miterlimit="10"/>
<path d="M220.68 46.35H227.03M211.27 116.24H236.45M211.27 78.72H236.45M216.78 71.28H230.93M204.79 59.17H242.91M199.64 51.14H248.07M248.22 73.04V48.1C248.22 44.94 245.66 42.38 242.5 42.38H205.2C202.04 42.38 199.48 44.94 199.48 48.1V121.44C199.48 124.6 202.04 127.16 205.2 127.16H242.5C245.66 127.16 248.22 124.6 248.22 121.44V115.09M230.25 107.01L236.72 101.37M244.34 94.71L269.81 72.48M230.09 91.54C230.09 94.98 227.3 97.77 223.85 97.77C220.4 97.77 217.62 94.98 217.62 91.54C217.62 88.1 220.41 85.31 223.85 85.31C227.29 85.31 230.09 88.1 230.09 91.54Z" stroke="#424242" stroke-width="2.33" stroke-linecap="round" stroke-linejoin="round"/>
<path d="M312.63 40.38C302.3 42.28 300.76 43.82 298.86 54.15C296.96 43.82 295.42 42.28 285.09 40.38C295.42 38.48 296.96 36.94 298.86 26.61C300.76 36.94 302.3 38.48 312.63 40.38Z" fill="#C00000"/>
</g>
<path d="M388.15 158.22C380.49 159.63 379.35 160.77 377.93 168.44C376.52 160.78 375.38 159.64 367.71 158.22C375.37 156.81 376.52 155.67 377.93 148C379.34 155.66 380.48 156.8 388.15 158.22Z" fill="#C00000"/>
<path d="M147.2 115.22C139.54 116.63 138.39 117.77 136.98 125.44C135.57 117.78 134.43 116.63 126.76 115.22C134.42 113.81 135.57 112.67 136.98 105C138.39 112.66 139.53 113.81 147.2 115.22Z" fill="#C00000"/>
</svg>
