<svg width="38" height="48" viewBox="0 0 38 48" fill="none" xmlns="http://www.w3.org/2000/svg">
<g clip-path="url(#clip0_165_22)">
<path d="M37.7313 8.6022L30.3429 0.359121C30.1414 0.133626 29.8475 0 29.5369 0H1.08308C0.486964 0 0 0.484396 0 1.07736V46.0426C0 46.6356 0.486964 47.12 1.08308 47.12H36.9253C37.5214 47.12 38.0084 46.6356 38.0084 46.0426V9.31209C38.0084 9.04484 37.9076 8.79429 37.7313 8.59385V8.6022ZM30.7963 4.10066L34.6668 8.42681H30.7963V4.10066ZM2.15776 44.9653V2.14637H28.6301V9.49582C28.6301 10.0888 29.1171 10.5732 29.7132 10.5732H35.8339V44.9736H2.15776V44.9653Z" fill="#9FC1FF"/>
<path d="M30.62 14.156H7.02741C6.4313 14.156 5.94434 14.6404 5.94434 15.2334C5.94434 15.8264 6.4313 16.3108 7.02741 16.3108H30.62C31.2161 16.3108 31.7031 15.8264 31.7031 15.2334C31.7031 14.6404 31.2161 14.156 30.62 14.156Z" fill="#9FC1FF"/>
<path d="M30.62 22.8H7.02741C6.4313 22.8 5.94434 23.2844 5.94434 23.8774C5.94434 24.4703 6.4313 24.9547 7.02741 24.9547H30.62C31.2161 24.9547 31.7031 24.4703 31.7031 23.8774C31.7031 23.2844 31.2161 22.8 30.62 22.8Z" fill="#9FC1FF"/>
<path d="M30.62 32.3793H7.02741C6.4313 32.3793 5.94434 32.8637 5.94434 33.4567C5.94434 34.0497 6.4313 34.5341 7.02741 34.5341H30.62C31.2161 34.5341 31.7031 34.0497 31.7031 33.4567C31.7031 32.8637 31.2161 32.3793 30.62 32.3793Z" fill="#9FC1FF"/>
</g>
<defs>
<clipPath id="clip0_165_22">
<rect width="38" height="47.12" fill="white"/>
</clipPath>
</defs>
</svg>
