<svg width="20" height="19" viewBox="0 0 20 19" fill="none" xmlns="http://www.w3.org/2000/svg">
<path d="M18.5252 15.886H0.853516V19H18.5252V15.886Z" fill="#FFFFFF"/>
<path d="M9.68897 8.72386C11.5405 8.72386 13.0546 10.1629 13.1718 12.0124H18.628C18.5858 10.2997 18.0608 8.64366 17.1092 7.21877L17.0061 7.06779L19.3733 4.68513L17.1842 2.48175L14.817 4.86442L14.6671 4.76062C13.678 4.09064 12.5811 3.63298 11.414 3.40179L11.2358 3.36876V0H8.14211V3.36876L7.96399 3.40179C6.79212 3.63298 5.69995 4.09064 4.70621 4.76062L4.55621 4.86442L2.18904 2.48175L0 4.68513L2.36717 7.06779L2.26404 7.21877C1.31249 8.64366 0.787493 10.295 0.745306 12.0124H6.2015C6.31869 10.1629 7.83274 8.72386 9.68428 8.72386H9.68897Z" fill="#FFFFFF"/>
</svg>