<svg width="45" height="45" viewBox="0 0 45 45" fill="none" xmlns="http://www.w3.org/2000/svg">
<path d="M1.36414 44.6118C1.00883 44.6118 0.662632 44.4751 0.398428 44.2109C0.0340081 43.8465 -0.0935392 43.2999 0.0704496 42.817L4.72591 28.8415C4.76235 28.5409 4.8899 28.2585 5.11766 28.0307L31.6383 1.51006C33.6517 -0.503354 36.9406 -0.503354 38.954 1.51006L43.1084 5.66445C44.0832 6.63927 44.6207 7.94207 44.6207 9.32686C44.6207 10.7117 44.0832 12.0053 43.1084 12.9893L16.5878 39.5099C16.3691 39.7286 16.0776 39.8652 15.7769 39.9017L1.80144 44.5571C1.65568 44.6027 1.50991 44.63 1.37325 44.63L1.36414 44.6118ZM7.3224 29.6797L3.52333 41.086L14.9297 37.2869L41.177 11.0396C41.6416 10.575 41.8876 9.9646 41.8876 9.31775C41.8876 8.67091 41.6325 8.05139 41.177 7.59587L37.0226 3.44149C36.1024 2.52133 34.4899 2.52133 33.5697 3.44149L7.3224 29.6888V29.6797Z" fill="#AC85FF"/>
<path d="M35.0003 20.6057C34.6541 20.6057 34.2988 20.469 34.0346 20.2048L24.4139 10.5841C23.8764 10.0466 23.8764 9.1811 24.4139 8.6527C24.9514 8.11518 25.8169 8.11518 26.3453 8.6527L35.966 18.2734C36.5035 18.8109 36.5035 19.6764 35.966 20.2048C35.7018 20.469 35.3465 20.6057 35.0003 20.6057Z" fill="#AC85FF"/>
<path d="M38.034 17.5627C37.6878 17.5627 37.3325 17.4261 37.0683 17.1619L27.4476 7.5412C26.9101 7.00368 26.9101 6.13818 27.4476 5.60977C27.9851 5.07225 28.8506 5.07225 29.379 5.60977L38.9997 15.2304C39.5372 15.768 39.5372 16.6335 38.9997 17.1619C38.7355 17.4261 38.3802 17.5627 38.034 17.5627Z" fill="#AC85FF"/>
<path d="M15.6311 39.9654C15.2849 39.9654 14.9296 39.8288 14.6654 39.5646L5.04474 29.9439C4.50722 29.4064 4.50722 28.5409 5.04474 28.0125C5.58226 27.4749 6.44775 27.4749 6.97616 28.0125L16.5968 37.6331C17.1344 38.1707 17.1344 39.0362 16.5968 39.5646C16.3326 39.8288 15.9773 39.9654 15.6311 39.9654Z" fill="#AC85FF"/>
<path d="M5.39109 39.2184C4.74425 38.5715 3.96075 38.1524 3.13169 37.9429L1.36426 43.2452L6.66656 41.4778C6.46613 40.6487 6.03794 39.8652 5.39109 39.2184Z" fill="#AC85FF"/>
</svg>
