<svg width="40" height="52" viewBox="0 0 40 52" fill="none" xmlns="http://www.w3.org/2000/svg">
<path d="M31.2451 19.4137H8.15942C7.57611 19.4137 7.09961 19.8628 7.09961 20.4125C7.09961 20.9622 7.57611 21.4112 8.15942 21.4112H31.2451C31.8284 21.4112 32.3049 20.9622 32.3049 20.4125C32.3049 19.8628 31.8284 19.4137 31.2451 19.4137Z" fill="#9FC1FF"/>
<path d="M31.2451 27.4268H8.15942C7.57611 27.4268 7.09961 27.8759 7.09961 28.4256C7.09961 28.9752 7.57611 29.4243 8.15942 29.4243H31.2451C31.8284 29.4243 32.3049 28.9752 32.3049 28.4256C32.3049 27.8759 31.8284 27.4268 31.2451 27.4268Z" fill="#9FC1FF"/>
<path d="M31.2451 36.307H8.15942C7.57611 36.307 7.09961 36.7561 7.09961 37.3058C7.09961 37.8555 7.57611 38.3045 8.15942 38.3045H31.2451C31.8284 38.3045 32.3049 37.8555 32.3049 37.3058C32.3049 36.7561 31.8284 36.307 31.2451 36.307Z" fill="#9FC1FF"/>
<path d="M10.4463 7.08444H1.15039V50.4131H38.334V7.08444H29.0381" stroke="#9FC1FF" stroke-width="2.3"/>
<mask id="path-5-inside-1_165_169" fill="white">
<rect x="10.0742" width="19.3355" height="13.3861" rx="2"/>
</mask>
<rect x="10.0742" width="19.3355" height="13.3861" rx="2" stroke="#9FC1FF" stroke-width="4.6" mask="url(#path-5-inside-1_165_169)"/>
</svg>
